<svg xmlns="http://www.w3.org/2000/svg" version="1.1" xmlns:xlink="http://www.w3.org/1999/xlink" xmlns:svgjs="http://svgjs.com/svgjs" width="296.8" height="296.8"><svg viewBox="0 0 296.8 296.8" width="296.8" height="296.8" xmlns="http://www.w3.org/2000/svg"><circle cx="25" cy="25" r="25" transform="scale(5.936)" fill="#111"></circle><path d="M169.071 173.515v-91.07l-7.07-1.98c-2.546-.849-3.96-3.677-3.96-6.223V47.657c0-2.263 1.697-5.657 4.525-5.657h50.909c2.263 0 4.525 3.111 4.525 5.09v28.284c0 2.262-1.697 4.242-3.96 5.09l-6.787 1.98-.283 97.576c-.283 36.202-14.99 53.455-51.758 53.455-35.07 0-53.454-11.03-53.454-48.081v-29.98c0-2.263 1.98-5.374 4.525-5.374H134c2.829 0 4.526 3.111 4.526 5.374l.282 27.152c0 5.373 2.829 8.767 8.485 8.767l16.97-13.01V182l-13.01 9.616h4.808c.566 0 1.131 0 1.697-.283l6.505-4.808c0 .849-.283 3.111-.566 3.677-.283.283-.565.566-.848.566 4.242 0 5.656-5.94 5.94-9.051zM134.283 68.303l7.637-5.94h4.525l-12.162 9.334v-3.394zm0 7.636 18.101-13.575h1.131v2.828l-19.232 14.141V75.94zm0 7.92 19.232-14.425v3.111L134.283 86.97v-3.111zm0 11.03v-3.394l19.232-14.424v3.394zm1.131 3.677 19.516-14.99c.848.848 1.697 1.131 2.545 1.697l-20.08 15.272c-.85 0-1.98-1.414-1.98-1.98zm9.051 4.242-3.111-.848 20.363-15.273.283-.283 2.546.848c0 .566 0 .566-.283.849l-19.515 14.424zm.566 7.354v-3.394l19.515-14.425v3.394zm0 4.525 19.515-14.424v3.394L145.03 118.08v-3.394zm0 11.03v-3.111l19.232-14.424h.283v3.394l-18.95 14.141h-.565zm0 7.92v-3.395l19.515-14.424v3.394zm0 4.525 19.515-14.425v3.394l-19.515 14.424v-3.393zm0 11.313v-3.394l19.232-14.425h.283v3.394l-18.95 14.142c-.283 0-.283.283-.565.283zm0 7.636v-3.394l19.515-14.424v3.394zm0 4.525 19.515-14.424v3.394L145.03 165.03v-3.394zm0 11.03v-3.11l19.515-14.425v3.111zm0 4.526 19.515-14.424v3.393l-19.515 14.425v-3.394zm-59.394-6.505L78 176.06c0-2.262 1.697-5.373 4.243-5.373h3.394zM78 180.586l13.576-9.9h4.525l-18.1 13.294v-3.394zm67.03 7.919v-3.394l19.233-14.424h.283v3.11zM78 191.899v-3.394l18.95-14.141.283-.283v3.394zm0 7.919v-3.394L97.233 182v3.394zm0 4.242 19.233-14.424c0 1.132.283 2.263.283 3.394L78 207.454v-3.394zm.566 7.637 18.95-14.424h.282c0 .282.283 2.545.283 3.11l-19.515 14.425c-.283-.849-.283-1.98-.283-2.828 0-.283 0-.283.283-.283zm.849 7.07 19.232-14.424.565 2.829-19.232 14.424h-.283l-.565-2.546c0-.283 0-.283.283-.283zm1.414 6.506 19.515-14.425.848 2.546c0 .283-.283.283-.283.283L81.394 228.1s-.565-2.263-.565-2.828zm1.98 6.505 19.797-14.707 1.132 2.262v.283L83.94 234.323c0-.283-.283-.848-.283-1.131-.283-.283-.849-1.414-.849-1.414zm3.11 5.373 19.799-14.707 1.414 2.263-19.515 14.707c-.849-.283-1.98-1.98-1.98-1.98zm3.677 5.091 19.798-14.707.283-.283 1.98 1.98-20.08 14.99zm5.091 4.243 20.081-15.273 2.545 1.697-20.08 14.99c-.849-.283-2.546-1.132-2.546-1.414zm5.94 3.394v-.283l20.08-14.99h.283l3.111 1.131-20.646 15.273-.566-.283c-.283 0-1.98-.848-2.262-.848zm48.08 2.828 21.778-16.121 4.525-1.132-1.13 1.98-18.385 13.859c-.283 0-5.656 1.414-6.505 1.414h-.283zm-40.727-.566 20.647-15.555 3.676.565-20.646 15.556c-.849 0-3.394-.283-3.677-.566zm8.768 1.132L137.11 238c.283-.283.283-.283.566-.283 1.131.283 3.677.283 3.677.283l.283.283-20.93 15.555c-1.697 0-2.828 0-3.96-.565zm46.1-15.556-20.928 15.838c-.283.283-.283.283-.566.283h-4.525l20.929-15.555c1.131-.283 4.242-.283 5.09-.566zm-36.484 16.121 20.93-15.555h4.525l-20.93 15.838z" fill="#FFF"></path></svg><style>@media (prefers-color-scheme: light) { :root { filter: none; } }
@media (prefers-color-scheme: dark) { :root { filter: invert(100%); } }
</style></svg>